# xmcd
#
# Track frame offsets:
#	150
#	21526
#	46276
#	71852
#	94891
#	116192
#	133067
#	152118
#	172744
#	191044
#
# Disc length: 2751 seconds
#
# Revision: 0
# Processed by: cddbd v1.5.1PL0 Copyright (c) Steve Scherf et al.
# Submitted via: audiograbber 1.83.01
#
DISCID=910abd0a
DTITLE=ねぴあ軍団 - ねぴあ軍団プレミアムCD Vol.6 が、がお…。
DYEAR=2000
DGENRE=Soundtrack
TTITLE0=Extraneum
TTITLE1=月童 -moon child-
TTITLE2=絵空事 -Moon. Re-M-
TTITLE3=魂　星　輪　上　回　全
TTITLE4=にはは -観鈴ちんどろり濃厚風味？-
TTITLE5=鬼神楽 -cool edit-
TTITLE6=朝影 -Celtic Mix-
TTITLE7=オルゴール〜黄昏Fusion Mix〜
TTITLE8=あなたの横顔 -BossaRock Mix-
TTITLE9=桜雪
EXTD=
EXTT0=
EXTT1=
EXTT2=
EXTT3=
EXTT4=
EXTT5=
EXTT6=
EXTT7=
EXTT8=
EXTT9=
PLAYORDER=
